<?xml version="1.0" encoding="utf-8"?>
<svg version="1.1" xmlns="http://www.w3.org/2000/svg" xmlns:xlink="http://www.w3.org/1999/xlink" x="0px" y="0px"
	 viewBox="0 0 256 256" style="enable-background:new 0 0 256 256;" xml:space="preserve">
<style type="text/css">
	.st0{fill:#1358A3;}
	.st1{opacity:0.4;fill:#F2F2F2;}
	.st2{fill:#F2F2F2;}
</style>
<g>
	<g>
		<g>
			<rect class="st0" width="256" height="256"/>
		</g>
	</g>
	<path class="st1" d="M211.9,145.5c2.8-2.8,4.1-6.6,3.9-10.3l0-20c-0.2-3.1-1.5-6-3.8-8.4l0,0c-5.2-5.2-13.6-5.2-18.8,0l-9.4,9.4
		v17.2l-8.6-8.6l-39.4,39.4c-14.7,14.7-38.7,14.7-53.4,0c-4.8-4.8-8.1-10.7-9.7-16.8c1.7-6.2,4.9-12,9.7-16.8l39.4-39.4V74.1
		l8.6,8.6l9.4-9.4c2.6-2.6,3.9-6.1,3.9-9.6l0-20.6c-0.2-3.1-1.5-6.1-3.8-8.4c-5.2-5.2-13.6-5.2-18.8,0l-9.4,9.4v17.2l-8.6-8.6
		L63.4,92.1c-15.1,15.1-21.1,35.8-18.1,55.4c-3,19.6,3,40.3,18.1,55.4l0,0c25.1,25.1,65.9,25.1,91.1,0l39.4-39.4v-17.2l8.6,8.6
		L211.9,145.5z"/>
	<g>
		<path class="st2" d="M202.5,135.1l9.4-9.4c5.2-5.2,5.2-13.6,0-18.8l0,0c-5.2-5.2-13.6-5.2-18.8,0l-9.4,9.4L202.5,135.1z"/>
		<path class="st2" d="M175.1,124.9l-39.4,39.4c-14.7,14.7-38.7,14.7-53.4,0c-14.7-14.7-14.7-38.7,0-53.4l39.4-39.4l-18.8-18.8
			L63.4,92.1c-25.1,25.1-25.1,65.9,0,91.1l0,0c25.1,25.1,65.9,25.1,91.1,0l39.4-39.4L175.1,124.9z"/>
		<path class="st2" d="M130.3,62.9l9.4-9.4c5.2-5.2,5.2-13.6,0-18.8l0,0c-5.2-5.2-13.6-5.2-18.8,0l-9.4,9.4L130.3,62.9z"/>
	</g>
</g>
</svg>
